<svg xmlns="http://www.w3.org/2000/svg" viewBox="0 0 1440 900"><rect width="1440" height="900" rx="28" fill="#0c0f18"/><rect x="70" y="80" width="1300" height="80" rx="16" fill="#151a28"/><circle cx="115" cy="120" r="16" fill="#665cff"/><circle cx="160" cy="120" r="16" fill="#293044"/><circle cx="205" cy="120" r="16" fill="#293044"/><rect x="70" y="205" width="360" height="620" rx="24" fill="#141827"/><rect x="470" y="205" width="900" height="300" rx="24" fill="#171d2d"/><rect x="470" y="545" width="430" height="280" rx="24" fill="#171d2d"/><rect x="940" y="545" width="430" height="280" rx="24" fill="#171d2d"/><g fill="#5b53ff"><rect x="110" y="270" width="220" height="22" rx="11"/><rect x="110" y="320" width="275" height="14" rx="7" opacity=".75"/><rect x="110" y="355" width="240" height="14" rx="7" opacity=".45"/><rect x="510" y="255" width="320" height="26" rx="13"/><circle cx="1130" cy="355" r="92" opacity=".75"/><circle cx="1035" cy="385" r="52" opacity=".45"/></g><g fill="#697088"><rect x="110" y="430" width="220" height="12" rx="6"/><rect x="110" y="468" width="250" height="12" rx="6"/><rect x="110" y="506" width="195" height="12" rx="6"/><rect x="510" y="320" width="410" height="14" rx="7"/><rect x="510" y="360" width="340" height="14" rx="7"/></g><text x="98" y="745" fill="#fff" font-family="Arial" font-size="50" font-weight="700">Nebula Dashboard</text></svg>